# xmcd
#
# Track frame offsets:
#	150
#	16426
#	37415
#	60424
#	81133
#	103991
#	130229
#	149429
#	166901
#	190496
#	211387
#	224342
#	243148
#	263356
#	287014
#	309394
#	327515
#
# Disc length: 4676 seconds
#
# Revision: 0
# Processed by: cddbd v1.5PL3 Copyright (c) Steve Scherf et al.
# Submitted via: dBpowerAMP V4.0
#
DISCID=fe124211
DTITLE=My Tam - Tieng hat de doi - Disc 03 - MyTam
DYEAR=2004
DGENRE=Vietnamese
TTITLE0=Ngo dau tinh da quen minh - MyTam
TTITLE1=Tinh em con mai - MyTam
TTITLE2=Nho - MyTam
TTITLE3=Duong xua - MyTam
TTITLE4=Ve chon thien duong - MyTam
TTITLE5=Quay ve loi xua - MyTam
TTITLE6=Khuc yeu thuong - MyTam
TTITLE7=Dem thay ta la thac do - MyTam
TTITLE8=Bong ca - MyTam
TTITLE9=Mua he yeu thuong - MyTam
TTITLE10=Ky niem - MyTam
TTITLE11=Tinh da dang sau - MyTam
TTITLE12=Hoa mi toc nau - MyTam
TTITLE13=You're not from here - MyTam
TTITLE14=Sai Gon tuyet voi - MyTam
TTITLE15=Niem tin chien thang - MyTam
TTITLE16=Tinh la nhu the - MyTam
EXTD=Tieng hat de doi 02 - My Tam
EXTT0=
EXTT1=
EXTT2=
EXTT3=
EXTT4=
EXTT5=
EXTT6=
EXTT7=
EXTT8=
EXTT9=
EXTT10=
EXTT11=
EXTT12=
EXTT13=
EXTT14=
EXTT15=
EXTT16=
PLAYORDER=
